<?xml version="1.0" encoding="iso-8859-1"?>
<!-- Uploaded to: SVG Repo, www.svgrepo.com, Generator: SVG Repo Mixer Tools -->
<svg version="1.1" id="Layer_1" xmlns="http://www.w3.org/2000/svg" xmlns:xlink="http://www.w3.org/1999/xlink" 
	 viewBox="0 0 511.999 511.999" xml:space="preserve">
<ellipse transform="matrix(-0.7071 -0.7071 0.7071 -0.7071 159.4659 432.9742)" style="fill:#A5001E;" cx="169.405" cy="183.461" rx="119.85" ry="194.428"/>
<path style="fill:#830018;" d="M254.157,268.22c-75.927,75.927-175.423,99.538-222.232,52.729c-2.813-2.812-5.377-5.822-7.686-9.005
	c37.737-29.935,57.842-22.431,102.514-67.103c52.012-52.012,33.292-70.732,85.303-122.743
	c44.672-44.672,64.778-37.168,102.523-67.111C350.677,104.673,325.524,196.854,254.157,268.22z"/>
<ellipse style="fill:#A5001E;" cx="384.304" cy="295.684" rx="119.851" ry="194.43"/>
<path style="fill:#830018;" d="M504.167,295.683c0,107.377-53.66,194.426-119.856,194.426c-3.977,0-7.919-0.314-11.802-0.933
	c5.517-47.852,25.039-56.762,25.039-119.938c0-73.555-26.474-73.555-26.474-147.111c0-63.176,19.523-72.086,25.039-119.949
	C456.77,111.788,504.167,194.756,504.167,295.683z"/>
<rect x="430.733" y="247.285" transform="matrix(-0.7072 -0.707 0.707 -0.7072 568.3562 745.6165)" style="fill:#A5001E;" width="15.672" height="15.672"/>
<rect x="362.692" y="378.409" transform="matrix(-0.7071 -0.7071 0.7071 -0.7071 359.4148 921.3648)" style="fill:#830018;" width="15.672" height="15.672"/>
<rect x="426.75" y="393.093" transform="matrix(-0.7071 -0.7071 0.7071 -0.7071 458.3859 991.728)" style="fill:#A5001E;" width="15.672" height="15.672"/>
<g>
	
		<rect x="302.64" y="203.965" transform="matrix(-0.7071 -0.7071 0.7071 -0.7071 380.2493 581.1063)" style="fill:#830018;" width="15.672" height="15.672"/>
	
		<rect x="296.751" y="311.825" transform="matrix(-0.7072 -0.707 0.707 -0.7072 293.9901 761.0718)" style="fill:#830018;" width="15.672" height="15.672"/>
</g>
<rect x="406.097" y="189.17" transform="matrix(-0.7072 -0.707 0.707 -0.7072 567.385 628.9834)" style="fill:#A5001E;" width="15.672" height="15.672"/>
<path d="M37.465,315.406c-0.69-0.69-1.36-1.395-2.018-2.112c12.173-8.769,22.468-13.625,33.27-18.708
	c17.994-8.469,36.6-17.227,63.578-44.203c26.971-26.973,35.73-45.581,44.2-63.576c8.26-17.552,16.064-34.129,41.104-59.168
	c25.041-25.042,41.618-32.846,59.168-41.106c11.037-5.196,22.404-10.557,35.799-20.208c5.028,8.918,8.285,19.216,9.718,30.8
	l15.554-1.922c-2.749-22.227-11.297-40.653-25.406-54.763c-24.632-24.631-62.822-32.356-107.546-21.743
	c-43.368,10.29-88.033,36.74-125.77,74.475c-37.736,37.736-64.185,82.402-74.476,125.77c-10.611,44.72-2.89,82.914,21.743,107.546
	c17.368,17.368,41.683,26.351,70.269,26.351c10.178,0,20.901-1.14,32.039-3.446c40.938-8.472,83.96-31.976,121.143-66.18
	l-10.609-11.534C167.524,337.635,78.899,356.843,37.465,315.406z M19.89,222.562c9.63-40.582,34.599-82.597,70.31-118.306
	c35.711-35.711,77.726-60.68,118.305-70.309c39.233-9.308,72.202-3.068,92.845,17.576c0.691,0.691,1.362,1.396,2.021,2.114
	c-12.176,8.772-22.474,13.631-33.277,18.717c-17.994,8.469-36.6,17.228-63.576,44.203c-26.972,26.973-35.731,45.581-44.201,63.577
	c-8.261,17.551-16.064,34.128-41.103,59.167c-25.043,25.043-41.619,32.846-59.17,41.105c-11.033,5.194-22.397,10.553-35.785,20.196
	C14.877,280.438,12.562,253.441,19.89,222.562z"/>
<path d="M475.73,154.084c-24.118-39.124-56.585-60.671-91.42-60.671s-67.303,21.547-91.42,60.671
	c-23.389,37.941-36.27,88.227-36.27,141.595c0,53.366,12.88,103.652,36.27,141.595c24.118,39.124,56.585,60.671,91.42,60.671
	s67.302-21.547,91.419-60.671c23.39-37.943,36.271-88.227,36.271-141.595S499.119,192.026,475.73,154.084z M306.231,429.05
	c-21.886-35.503-33.939-82.868-33.939-133.37s12.053-97.868,33.939-133.371c21.156-34.322,48.886-53.223,78.078-53.223
	c0.977,0,1.951,0.025,2.924,0.067c-2.406,14.813-6.253,25.53-10.297,36.765c-6.734,18.714-13.698,38.064-13.698,76.211
	c0,38.145,6.965,57.495,13.7,76.209c6.569,18.252,12.774,35.491,12.774,70.901c0,35.416-6.205,52.655-12.774,70.904
	c-4.13,11.474-8.375,23.298-11.023,39.585C343.61,473.519,322.883,456.065,306.231,429.05z M462.388,429.05
	c-21.156,34.322-48.886,53.223-78.078,53.223c-0.976,0-1.949-0.024-2.92-0.067c2.406-14.808,6.252-25.523,10.296-36.755
	c6.735-18.713,13.7-38.063,13.7-76.212c0-38.145-6.965-57.495-13.7-76.209c-6.569-18.252-12.774-35.491-12.774-70.901
	c0-35.414,6.204-52.654,12.773-70.903c4.13-11.477,8.376-23.304,11.024-39.594c22.304,6.211,43.029,23.664,59.681,50.678
	c21.886,35.503,33.939,82.869,33.939,133.371C496.327,346.18,484.274,393.546,462.388,429.05z"/>
<rect x="239.68" y="175.049" style="fill:#A5001E;" width="15.672" height="15.672"/>
<rect x="98.87" y="219.673" style="fill:#830018;" width="15.672" height="15.672"/>
<rect x="133.778" y="275.352" style="fill:#A5001E;" width="15.672" height="15.672"/>
<g>
	<rect x="179.75" y="53.851" style="fill:#830018;" width="15.672" height="15.672"/>
	<rect x="99.299" y="125.943" style="fill:#830018;" width="15.672" height="15.672"/>
</g>
<rect x="263.335" y="116.54" style="fill:#A5001E;" width="15.672" height="15.672"/>
</svg>