<?xml version="1.0" encoding="utf-8"?><!-- Uploaded to: SVG Repo, www.svgrepo.com, Generator: SVG Repo Mixer Tools -->
<svg width="800px" height="800px" viewBox="0 -8.63 138.146 138.146" xmlns="http://www.w3.org/2000/svg">
  <g id="coffee" transform="translate(-101.31 702.377)">
    <path id="path34" d="M213.954-676.88H133.818l-8.365.945L104-631.55l3.778,5.8,5.8.675,20.236-40.337h72.041l12.547-1.62v-7.419l-4.452-2.429" fill="#ed395e"/>
    <path id="path36" d="M223.262-624.534l-5.936-1.7s-10.388-2.751-11.063-2.377-8.095,1.112-8.095,1.112l-12.276,3.643s-10.253-4.453-11.6-4.721-8.229,1.213-8.229,1.213l-14.3,2.563-12.141-2.563v12.681l6.34,21.452,8.635,9.039h68.4l9.579-16.461,4.181-29.005-13.491,5.128" fill="#92444d"/>
    <path id="path38" d="M166.2-688.077l-1.483,11.6,48.565-.54,7.556-22.124L166.2-688.077" fill="#ed395e"/>
    <path id="path40" d="M231-647.153l-14.752-14.932-4.317-2.7H156.888L149.7-653.452l-6.839,8.791-3.237,16.215,7.555,2.339,9.355.359,11.332-2.34,15.207,3.015,5.119.535,13.491-5.123,14.933,3.732,8.992,1.391,10.784-2.559L231-647.153" fill="#f8fafc"/>
    <path id="path42" d="M141.222-621.794c0-.948.025-1.9.075-2.841.025.008.043.017.068.027l6.285,2.072a18.066,18.066,0,0,0,5.435.743,18.267,18.267,0,0,0,5.489-.751l6.349-2.117a18.075,18.075,0,0,1,5.46-.749,18.082,18.082,0,0,1,5.459.749l6.349,2.117a18.2,18.2,0,0,0,5.46.751,18.2,18.2,0,0,0,5.459-.751l6.349-2.117a18.087,18.087,0,0,1,5.46-.749,18.092,18.092,0,0,1,5.46.749l6.348,2.117a18.256,18.256,0,0,0,5.472.751,21.816,21.816,0,0,0,2.863-.181c0,.064,0,.123,0,.181a40.006,40.006,0,0,1-10.675,27.32s0,.008,0,.008a2.882,2.882,0,0,0,.007,4.065,2.884,2.884,0,0,0,4.069,0h0a45.733,45.733,0,0,0,12.357-31.393q0-.9-.039-1.787l2.841-.945c.051.907.076,1.821.076,2.732a50.9,50.9,0,0,1-4.081,20.119,48.772,48.772,0,0,1-9.409,14.417h-65.5a48.892,48.892,0,0,1-9.415-14.417,50.891,50.891,0,0,1-4.076-20.119Zm13.641-34.7a46.784,46.784,0,0,1,6.359-5.589h52.332c.045,0,.092-.008.139-.008a47.468,47.468,0,0,1,6.361,5.6,49.087,49.087,0,0,1,9.975,15.565A50.6,50.6,0,0,1,233-630.357c-.261.073-.519.148-.768.228l-2.04.679a45.736,45.736,0,0,0-12.855-24.9,47.45,47.45,0,0,0-4.881-4.249v.005a2.879,2.879,0,0,0-3.8.236,2.878,2.878,0,0,0,0,4.072,3.258,3.258,0,0,0,.32.269h0a41.288,41.288,0,0,1,4.292,3.736,40,40,0,0,1,11.371,22.556,15.853,15.853,0,0,1-2.433.179,12.431,12.431,0,0,1-3.651-.457l-6.349-2.117a23.986,23.986,0,0,0-7.28-1.044,23.994,23.994,0,0,0-7.281,1.044l-6.349,2.117a12.6,12.6,0,0,1-3.637.455,12.6,12.6,0,0,1-3.639-.455l-6.349-2.117a23.992,23.992,0,0,0-7.28-1.044,23.989,23.989,0,0,0-7.281,1.044l-6.349,2.117a12.549,12.549,0,0,1-3.668.463A12.524,12.524,0,0,1,149.46-628l-6.291-2.079c-.392-.131-.809-.245-1.235-.347a50.576,50.576,0,0,1,2.955-10.5A49.088,49.088,0,0,1,154.864-656.492ZM131.546-667.84l-1.581,3.216-17.437,35.468a2.873,2.873,0,0,1-2.589,1.611,2.858,2.858,0,0,1-1.265-.3,2.884,2.884,0,0,1-1.311-3.855l20.6-41.9h85.591a2.885,2.885,0,0,1,2.879,2.884,2.88,2.88,0,0,1-2.879,2.876H131.546ZM167.5-686.061l49.025-8.912-2.331,6.989h-9.279a2.858,2.858,0,0,0-2.036.844,2.871,2.871,0,0,0,0,4.063,2.858,2.858,0,0,0,2.036.844h7.364l-.96,2.884H167.5Zm60.439,98.8h-.177a56.17,56.17,0,0,0,11.691-34.536,55.652,55.652,0,0,0-19.735-42.884,8.587,8.587,0,0,0,2.467-6.037,8.631,8.631,0,0,0-5.055-7.859l7.933-23.8-63.317,11.509v11.519h-37.37L102.2-634.24a8.631,8.631,0,0,0,3.937,11.56,8.556,8.556,0,0,0,3.8.885,8.643,8.643,0,0,0,7.757-4.823l17.437-35.464h17.175a55.83,55.83,0,0,0-16.847,40.287,56.221,56.221,0,0,0,11.7,34.549,2.891,2.891,0,0,0-1.835.831,2.879,2.879,0,0,0,0,4.073,2.855,2.855,0,0,0,2.036.843h80.582a2.854,2.854,0,0,0,2.036-.843,2.879,2.879,0,0,0,0-4.073,2.889,2.889,0,0,0-2.036-.844" fill="#100f0d"/>
  </g>
</svg>