<?xml version="1.0" encoding="iso-8859-1"?>

<!DOCTYPE svg PUBLIC "-//W3C//DTD SVG 1.1//EN" "http://www.w3.org/Graphics/SVG/1.1/DTD/svg11.dtd">
<!-- Uploaded to: SVG Repo, www.svgrepo.com, Generator: SVG Repo Mixer Tools -->
<svg version="1.1" id="_x35_" xmlns="http://www.w3.org/2000/svg" xmlns:xlink="http://www.w3.org/1999/xlink" 
	 viewBox="0 0 512 512"  xml:space="preserve">
<g>
	<g>
		<polygon style="fill:#9A9696;" points="284.992,270.581 284.327,379.931 265.243,399.081 272.332,406.143 294.309,384.088 
			295,270.647 		"/>
		
			<rect x="282.764" y="395.04" transform="matrix(-0.7667 -0.642 0.642 -0.7667 292.3471 906.3295)" style="fill:#9A9696;" width="56.182" height="10.009"/>
		
			<rect x="273.76" y="400.408" transform="matrix(-0.3786 -0.9255 0.9255 -0.3786 34.3182 833.8671)" style="fill:#9A9696;" width="46.616" height="10.011"/>
		<polygon style="fill:#9A9696;" points="305.75,288.004 352.857,386.695 344.029,412.268 353.49,415.539 363.66,386.082 
			314.781,283.691 		"/>
		<polygon style="fill:#9A9696;" points="357.04,391.242 411.523,404.932 413.959,395.223 359.477,381.534 		"/>
		
			<rect x="352.119" y="399.072" transform="matrix(-0.7445 -0.6676 0.6676 -0.7445 385.1624 955.5622)" style="fill:#9A9696;" width="46.629" height="10.012"/>
	</g>
	<polygon style="fill:#C98484;" points="464.563,98.477 462.828,98.143 414.791,148.649 373.492,296.365 332.193,320.184 
		323.519,325.187 294.564,341.8 284.556,347.605 283.488,348.206 205.894,312.377 68.32,442.746 59.647,450.952 24.019,401.18 
		25.62,399.979 136.106,317.448 17.614,389.638 0,370.022 131.703,293.762 18.281,348.005 8.073,321.251 209.23,241.922 
		325.654,119.227 336.796,52.174 325.654,19.015 297.899,10.207 337.13,0 372.758,24.686 442.479,32.159 455.022,57.178 
		459.759,57.979 462.828,83.598 	"/>
	<path style="fill:#FFFFFF;" d="M420.996,80.576c-1.381,8.36-9.284,14.008-17.637,12.608c-8.36-1.368-14.002-9.285-12.621-17.638
		c1.388-8.359,9.291-14.008,17.644-12.614C416.748,64.32,422.384,72.224,420.996,80.576z"/>
	<path style="fill:#989898;" d="M413.641,78.856c-0.664,3.988-4.431,6.672-8.412,6.001c-3.987-0.651-6.672-4.418-6.007-8.399
		c0.665-3.98,4.424-6.672,8.412-6.007C411.608,71.122,414.298,74.882,413.641,78.856z"/>
	<polygon style="fill:#B0715D;" points="368.775,182.466 299.984,287.515 239.468,295.243 208.708,266.431 242.029,279.86 
		283.624,231.489 256.434,276.329 296.452,273.11 	"/>
	<polygon style="fill:#B0715D;" points="351.469,158.867 331.076,192.48 337.552,171.344 	"/>
	<polygon style="fill:#B0715D;" points="235.891,237.157 210.898,267.52 228.711,254.417 	"/>
	<g>
		<polygon style="fill:#EED783;" points="512,116.758 508.731,114.89 486.246,87.468 462.828,83.598 459.759,57.979 490.85,63.116 
			499.724,64.585 501.992,74.258 		"/>
		<polygon style="fill:#D9C37C;" points="486.236,87.476 462.82,83.587 464.572,98.448 487.239,102.221 508.721,114.868 		"/>
	</g>
</g>
</svg>