<?xml version="1.0" encoding="utf-8"?><!-- Uploaded to: SVG Repo, www.svgrepo.com, Generator: SVG Repo Mixer Tools -->
<svg width="800px" height="800px" viewBox="-26.78 0 148.201 148.201" xmlns="http://www.w3.org/2000/svg">
  <g id="drink_cola_coke" data-name="drink cola coke" transform="translate(-547.312 -620.262)">
    <g id="Group_1946" data-name="Group 1946">
      <g id="Group_1945" data-name="Group 1945">
        <g id="Group_1944" data-name="Group 1944">
          <path id="Path_4542" data-name="Path 4542" d="M580.216,690.035l26.2-56.046a12.943,12.943,0,0,1,3.416-4.3h0a13,13,0,0,1,4.82-2.645h0l24.716-6.779,2.59,9.443-24.714,6.782a3.922,3.922,0,0,0-1.1.682h0a3.93,3.93,0,0,0-.859.966h0l-26.193,56.046h0l-8.875-4.147Z" fill="#e2dfda"/>
        </g>
      </g>
    </g>
    <path id="Path_4543" data-name="Path 4543" d="M626.126,663.417l-34.336.728-34.335-.728a3.271,3.271,0,0,0-3.39,3.584l7.545,97.8a4.044,4.044,0,0,0,3.956,3.662h52.45a4.044,4.044,0,0,0,3.955-3.662l7.546-97.8A3.272,3.272,0,0,0,626.126,663.417Z" fill="#ed4d55"/>
    <path id="Path_4544" data-name="Path 4544" d="M560.366,748.671l64.832-25.7,2.2-28.569L558.293,721.8Z" fill="#e5eff3"/>
    <path id="Path_4545" data-name="Path 4545" d="M626.126,663.417l-34.336.728-34.335-.728a3.271,3.271,0,0,0-3.39,3.584l.765,9.92c10.072,1.517,42.778,7.76,71.77,27.87L629.517,667A3.272,3.272,0,0,0,626.126,663.417Z" fill="#c52c58" opacity="0.4"/>
    <path id="Path_4546" data-name="Path 4546" d="M636.268,672.828a3.083,3.083,0,0,1-3.108,3.06H550.419a3.084,3.084,0,0,1-3.107-3.06V659.973a3.084,3.084,0,0,1,3.107-3.059H633.16a3.083,3.083,0,0,1,3.108,3.059Z" fill="#bc2a38"/>
  </g>
</svg>