<?xml version="1.0" encoding="utf-8"?><!-- Uploaded to: SVG Repo, www.svgrepo.com, Generator: SVG Repo Mixer Tools -->
<svg version="1.1" id="Uploaded to svgrepo.com" xmlns="http://www.w3.org/2000/svg" xmlns:xlink="http://www.w3.org/1999/xlink" 
	 width="800px" height="800px" viewBox="0 0 32 32" xml:space="preserve">
<g>
	<g>
		<path style="fill:#EAD13F;" d="M14.526,18.5c-2.443,0-4.617-1.64-5.288-3.989L8.377,11.5H5.5v-4h1v-4h3v-2h3v1h3v-1h3v1h3v1h3v4
			h2v4h-2.877l-0.861,3.011c-0.671,2.349-2.845,3.989-5.288,3.989H14.526z"/>
	</g>
	<path style="fill:#CC4121;" d="M6.567,30.515L4.427,11.518l3.936-0.006l0.866,3.01c0.675,2.348,2.851,3.984,5.294,3.98
		l2.948-0.005c2.443-0.004,4.615-1.647,5.282-3.997l0.856-3.013l3.936-0.006l-2.081,19.003L6.567,30.515z"/>
	<path style="fill:#231F20;" d="M18,2v3h-1v1h-1V2H18 M12,2v3h-2V2H12 M21,3v2h-2V3H21 M15,3v3h-1v1h-1V3H15 M24,4v3h-2V4H24 M9,4v1H8
		v2H7V4H9 M20,6v11.295c-0.605,0.357-1.282,0.584-2,0.661V6H20 M11,6v10.528c-0.59-0.588-1.043-1.319-1.282-2.155L9,11.86V6H11
		 M17,7v11h-2V7H17 M26,8v3h-2h0V8H26 M23,8v3.86l-0.718,2.513c-0.239,0.836-0.692,1.567-1.282,2.155V8H23 M14,8v9.956
		c-0.718-0.077-1.396-0.305-2-0.662V8H14 M8,8v3H6V8H8 M27,13l-2,17H7L5,12h3l0.757,2.648C9.493,17.224,11.847,19,14.526,19h2.948
		c2.679,0,5.033-1.776,5.769-4.352L24,12h3 M19,1h-4v1h-2V1H9v2H6v4H5v4H3.883l2.123,19.11L6.105,31H7h18h0.895l0.099-0.89
		L28.117,11H27V7h-2V3h-3V2h-3V1L19,1z"/>
</g>
</svg>