<?xml version="1.0" encoding="iso-8859-1"?>
<!-- Uploaded to: SVG Repo, www.svgrepo.com, Generator: SVG Repo Mixer Tools -->
<svg height="800px" width="800px" version="1.1" id="Layer_1" xmlns="http://www.w3.org/2000/svg" xmlns:xlink="http://www.w3.org/1999/xlink" 
	 viewBox="0 0 512 512" xml:space="preserve">
<path style="fill:#D5A150;" d="M126.124,237.217c52.237-17.122,93.41-58.525,110.652-110.895
	c10.506-31.912,40.185-53.564,73.782-53.564h94.821L72.334,416.583V311.074C72.334,277.389,94.115,247.709,126.124,237.217z"/>
<path style="fill:#C98A2E;" d="M310.559,72.758c-0.088,0-0.177,0-0.265,0c-13.606,0.046-24.908,10.492-26.433,24.012
	c-11.074,98.207-89.231,176.39-187.426,187.504c-13.57,1.536-24.053,12.875-24.1,26.532c0,0.088,0,0.178,0,0.266v105.509
	L405.38,72.758H310.559z"/>
<path style="fill:#BD7155;" d="M72.334,439.242c49.446,0,97.448-9.699,142.672-28.827c43.647-18.461,82.835-44.877,116.471-78.514
	c33.637-33.637,60.053-72.824,78.515-116.472c19.127-45.224,28.826-93.226,28.826-142.672c0-35.718-28.956-64.674-64.674-64.674
	s-64.674,28.955-64.674,64.674c0,130.758-106.379,237.137-237.137,237.137c-35.718,0-64.674,28.955-64.674,64.674
	S36.616,439.242,72.334,439.242z"/>
<path style="fill:#AB5034;" d="M429.145,38.738c-35.786,3.481-67.141,26.061-81.554,57.389c-5.788,12.581-0.393,35.915-0.393,35.915
	l-19.908,25.4l-0.65,38.716l-25.926,18.428l-7.52,34.334l-27.256,10.435l-21.137,33.698l-28.819,3.406l-24.552,28.65l-31.243-1.7
	l-28.57,22.055l-31.259-4.312c0,0-10.569,10.541-17.246,14.88c-24.674,16.038-41.804,42.748-44.799,73.534
	c9.884,6.127,21.535,9.673,34.019,9.673c49.446,0,97.448-9.699,142.672-28.827c43.647-18.461,82.835-44.877,116.471-78.514
	c33.637-33.637,60.053-72.824,78.515-116.472c19.127-45.224,28.826-93.226,28.826-142.672
	C438.819,60.274,435.272,48.623,429.145,38.738z"/>
<path style="fill:#D5A150;" d="M137.008,503.916c49.446,0,97.448-9.699,142.672-28.827c43.647-18.461,82.835-44.877,116.471-78.514
	c33.637-33.637,60.053-72.824,78.515-116.472c19.127-45.224,28.826-93.226,28.826-142.672c0-35.718-28.956-64.674-64.674-64.674
	s-64.674,28.955-64.674,64.674c0,130.758-106.379,237.137-237.137,237.137c-35.718,0-64.674,28.956-64.674,64.674
	S101.29,503.916,137.008,503.916z"/>
<path style="fill:#C98A2E;" d="M503.49,136.87c-0.229-26.791-35.506-36.325-49.552-13.51c-9.51,15.447-15.919,32.755-18.62,50.984
	c-21.299,143.819-137.409,257.35-282.68,273.662c-24.44,2.744-46.801,15.052-62.395,34.069l-0.8,0.975
	c11.818,12.825,28.75,20.865,47.564,20.865c49.446,0,97.448-9.699,142.672-28.827c43.647-18.461,82.835-44.877,116.471-78.514
	c33.637-33.637,60.053-72.824,78.515-116.472c19.127-45.224,28.826-93.226,28.826-142.672
	C503.492,137.244,503.491,137.058,503.49,136.87z"/>
<path style="fill:#DFCE4E;" d="M69.642,348.161c3.781-0.316,7.121-2.402,9.373-5.547c2.437-3.401,5.36-6.111,8.583-8.099
	c1.609-1.004,3.304-1.788,5.036-2.462c1.724-0.714,3.5-1.246,5.311-1.592c3.621-0.692,7.378-0.641,11.11,0.184
	c0.932,0.206,1.864,0.46,2.791,0.764c0.919,0.274,1.83,0.58,2.737,0.946c1.812,0.728,3.597,1.656,5.332,2.791
	c3.21,2.101,7.052,2.76,10.737,1.876c0.918-0.23,1.809-0.513,2.633-0.944c0.822-0.437,1.596-0.954,2.313-1.545
	c1.431-1.182,2.628-2.66,3.513-4.373c1.913-3.703,4.396-6.785,7.273-9.196c1.455-1.163,2.93-2.369,4.524-3.297
	c1.585-0.953,3.25-1.732,4.977-2.334s3.517-1.024,5.352-1.262c0.917-0.12,1.846-0.192,2.784-0.219
	c0.929-0.047,1.85-0.087,2.786-0.058c3.739,0.099,7.598,0.968,11.411,2.67c1.765,0.788,3.625,1.198,5.485,1.23
	c1.868,0.052,3.653-0.458,5.373-1.245c3.422-1.62,5.99-4.537,7.132-8.165c1.278-3.852,3.047-7.492,5.36-10.451
	c2.296-2.992,5.142-5.316,8.279-7.126c3.071-1.914,6.527-3.174,10.256-3.712c1.857-0.279,3.811-0.336,5.764-0.278
	c1.927,0.022,3.908,0.236,5.926,0.656c3.733,0.78,7.546-0.03,10.637-2.214c0.785-0.529,1.462-1.178,2.047-1.904
	c0.593-0.716,1.11-1.489,1.544-2.306c0.868-1.635,1.401-3.45,1.551-5.359c0.163-2.063,0.511-4.033,1.028-5.896
	c0.259-0.931,0.559-1.836,0.901-2.712c0.326-0.894,0.658-1.798,1.046-2.652c1.536-3.436,3.68-6.403,6.347-8.816
	c0.656-0.613,1.387-1.151,2.075-1.728c0.689-0.576,1.409-1.115,2.159-1.617c1.5-1.005,3.122-1.863,4.854-2.56
	c3.442-1.414,7.437-2.099,11.466-2.309c3.79-0.134,7.281-1.844,9.743-4.717c0.613-0.719,1.15-1.482,1.586-2.294
	c0.398-0.841,0.708-1.718,0.927-2.619c0.438-1.801,0.509-3.695,0.184-5.586c-0.35-2.043-0.499-4.039-0.459-5.972
	c0.023-1.945,0.32-3.764,0.593-5.647c0.631-3.708,1.964-7.108,3.94-10.101c0.49-0.75,1.037-1.466,1.594-2.173
	c0.523-0.728,1.085-1.429,1.686-2.102c1.201-1.345,2.557-2.578,4.058-3.684c2.975-2.226,6.679-3.876,10.529-5.084
	c3.638-1.072,6.595-3.598,8.264-6.992c0.415-0.849,0.747-1.72,0.964-2.616c0.178-0.913,0.262-1.84,0.252-2.767
	c-0.021-1.854-0.42-3.707-1.201-5.46c-0.844-1.895-1.48-3.794-1.918-5.679c-0.459-1.894-0.617-3.732-0.808-5.63
	c-0.292-3.76,0.176-7.398,1.365-10.796c0.297-0.85,0.639-1.685,1.026-2.504c0.348-0.832,0.716-1.657,1.14-2.458
	c0.844-1.604,1.865-3.136,3.057-4.577c1.192-1.441,2.556-2.794,4.085-4.04c0.765-0.623,1.572-1.219,2.418-1.785
	c0.815-0.576,1.651-1.126,2.541-1.642c3.281-1.907,5.554-5.055,6.374-8.75c0.905-3.678-0.125-7.505-2.44-10.57
	c-2.516-3.319-4.231-6.858-5.169-10.45c-1.095-3.621-1.486-7.311-1.089-10.921c0.195-1.805,0.578-3.593,1.147-5.344
	c0.472-1.763,1.129-3.491,1.974-5.166c1.689-3.348,4.126-6.484,7.295-9.234c1.5-1.272,2.559-2.795,3.298-4.473
	c0.737-1.678,1.125-3.513,1.13-5.406c0.01-4.263,3.637-7.806,8.1-7.916c4.464-0.11,8.078,3.454,8.068,7.958
	c-0.004,2.076-0.211,4.121-0.61,6.102c-0.203,0.991-0.44,1.965-0.748,2.919c-0.343,0.955-0.731,1.891-1.163,2.801
	c-1.731,3.647-4.178,6.907-7.249,9.573c-1.522,1.313-2.66,2.854-3.509,4.516c-0.902,1.659-1.456,3.444-1.651,5.263
	c-0.39,3.638,0.652,7.428,3.206,10.618c2.527,3.224,4.16,6.9,5.095,10.825c0.889,3.918,1.149,8.098,0.149,12.173
	c-0.903,4.09-2.572,7.89-4.873,11.155c-2.411,3.242-5.593,5.917-9.165,7.878c-1.771,0.966-3.25,2.222-4.411,3.673
	c-0.587,0.724-1.066,1.507-1.513,2.312c-0.469,0.799-0.856,1.635-1.157,2.501c-1.204,3.458-1.042,7.375,0.725,11.057
	c1.877,3.76,2.56,7.691,2.565,11.744c-0.011,2.02-0.229,4.055-0.646,6.072c-0.209,1.008-0.469,2.011-0.777,3.004
	c-0.333,0.983-0.77,1.934-1.227,2.882c-1.855,3.783-4.389,7.107-7.406,9.753c-1.463,1.347-3.275,2.408-5.068,3.338
	c-1.818,0.917-3.728,1.646-5.711,2.169c-1.954,0.514-3.694,1.38-5.171,2.51c-0.738,0.566-1.412,1.199-2.014,1.888
	c-0.649,0.662-1.23,1.379-1.733,2.144c-2.014,3.059-2.814,6.896-2.004,10.903c0.899,4.112,0.59,8.093-0.412,12.026
	c-0.512,1.957-1.228,3.879-2.134,5.732c-0.453,0.927-0.954,1.837-1.5,2.725c-0.57,0.869-1.229,1.682-1.908,2.488
	c-2.74,3.206-6.022,5.796-9.605,7.61c-1.754,0.942-3.765,1.521-5.737,1.973c-1.989,0.435-4.022,0.665-6.072,0.677
	c-2.021,0.012-3.922,0.416-5.635,1.144c-0.857,0.364-1.666,0.81-2.422,1.327c-0.763,0.51-1.525,1.037-2.197,1.66
	c-2.711,2.462-4.439,5.976-4.641,10.051c-0.119,2.044-0.379,4.149-0.974,6.038c-0.581,1.907-1.366,3.755-2.338,5.52
	s-2.133,3.444-3.461,5.01c-0.664,0.784-1.37,1.538-2.115,2.26c-0.739,0.731-1.527,1.417-2.395,2.005
	c-6.88,4.816-15.083,6.921-23.175,4.845c-3.947-0.939-7.793-0.247-10.903,1.685c-3.166,1.832-5.696,4.77-6.798,8.675
	c-0.564,1.97-1.328,3.862-2.274,5.655c-0.952,1.782-2.056,3.529-3.405,4.97c-2.662,2.962-5.977,5.423-9.743,7.203
	c-0.941,0.445-1.897,0.841-2.862,1.186c-0.483,0.172-0.967,0.333-1.454,0.481c-0.496,0.123-0.994,0.234-1.494,0.332
	c-1.997,0.393-4.016,0.586-6.024,0.578c-4.016-0.017-7.985-0.847-11.678-2.496c-1.808-0.777-3.734-1.307-5.607-1.403
	c-1.878-0.109-3.724,0.153-5.452,0.755c-3.456,1.195-6.434,3.783-8.233,7.426c-1.853,3.587-4.423,6.7-7.531,9.21
	c-1.554,1.255-3.242,2.356-5.038,3.29c-1.795,0.941-3.696,1.716-5.709,2.161c-4.01,0.965-8.099,1.119-12.02,0.48
	c-1.961-0.319-3.878-0.838-5.727-1.55c-1.851-0.729-3.65-1.749-5.343-2.9c-3.343-2.295-7.197-3.026-10.786-2.341
	c-1.796,0.343-3.527,1.04-5.1,2.073c-1.573,1.029-3.006,2.275-4.167,3.916c-2.36,3.294-5.342,6.016-8.759,8.06
	c-3.416,2.035-7.26,3.475-11.339,3.815c-4.414,0.446-8.338-2.797-8.762-7.241C62.285,352.539,65.388,348.589,69.642,348.161z"/>
<path d="M7.231,371.463c0.466,0.08,0.927,0.119,1.384,0.119c3.862,0,7.278-2.776,7.957-6.711
	c4.687-27.17,28.138-46.892,55.788-46.892c135.188-0.014,245.183-110.01,245.196-245.221c0-31.203,25.385-56.589,56.589-56.589
	c23.25,0,43.872,13.939,52.537,35.511c1.663,4.143,6.368,6.15,10.515,4.489c4.142-1.664,6.153-6.371,4.488-10.515
	C430.546,17.92,404.035,0,374.145,0c-37.544,0-68.533,28.585-72.357,65.15c-33.36,3.433-62.02,26.235-72.69,58.644
	c-16.444,49.951-55.881,89.48-105.491,105.741c-27.127,8.892-48.047,30.468-55.96,57.715c-1.245,4.288,1.221,8.773,5.509,10.018
	c0.753,0.219,1.512,0.323,2.258,0.323c3.504,0,6.734-2.297,7.76-5.831c6.422-22.115,23.419-39.633,45.468-46.86
	c54.474-17.854,97.767-61.238,115.813-116.048c8.425-25.589,30.645-43.808,56.748-47.359
	c-4.608,122.253-105.489,220.306-228.868,220.318c-35.514,0-65.667,25.365-71.696,60.311
	C-0.121,366.522,2.831,370.704,7.231,371.463z"/>
<path d="M438.819,64.674c-40.119,0-72.758,32.639-72.758,72.758c0,126.3-102.752,229.053-229.053,229.053
	c-37.213,0-67.972,28.089-72.234,64.176c-24.469-3.232-44.214-21.956-48.286-46.892c-0.719-4.406-4.877-7.393-9.282-6.675
	c-4.406,0.72-7.394,4.875-6.675,9.282c5.351,32.764,31.729,57.177,64.127,60.54C68.503,483.44,99.48,512,137.008,512
	c50.534,0,99.595-9.913,145.822-29.466c44.613-18.87,84.663-45.867,119.038-80.242c34.376-34.375,61.373-74.425,80.244-119.039
	c19.552-46.227,29.464-95.287,29.464-145.821C511.576,97.312,478.938,64.674,438.819,64.674z M467.22,276.953
	c-18.055,42.687-43.89,81.009-76.785,113.905s-71.218,58.729-113.903,76.784c-44.223,18.705-91.165,28.189-139.524,28.189
	c-31.204,0-56.589-25.387-56.589-56.589s25.385-56.589,56.589-56.589c135.215,0,245.221-110.006,245.221-245.221
	c0-31.203,25.385-56.589,56.589-56.589s56.589,25.387,56.589,56.589C495.408,185.789,485.925,232.731,467.22,276.953z"/>
</svg>